<?xml version="1.0" encoding="UTF-8"?>
<svg width="200" height="200" viewBox="0 0 200 200" fill="none" xmlns="http://www.w3.org/2000/svg">
  <!-- Main Swirl -->
  <path d="M200 0C180 0 160 10 150 30C140 50 140 70 150 90C160 110 180 120 200 120"
        stroke="#FFB6C1" stroke-width="2" fill="none"/>
  
  <!-- Secondary Swirls -->
  <path d="M180 0C170 10 165 20 165 30C165 40 170 50 180 55"
        stroke="#FFB6C1" stroke-width="1.5" fill="none"/>
  <path d="M200 40C190 40 180 45 175 55C170 65 170 75 175 85"
        stroke="#FFB6C1" stroke-width="1.5" fill="none"/>
  
  <!-- Decorative Dots -->
  <circle cx="155" cy="32" r="3" fill="#FFB6C1"/>
  <circle cx="175" cy="52" r="2" fill="#FFB6C1"/>
  <circle cx="190" cy="72" r="2" fill="#FFB6C1"/>
  
  <!-- Leaves -->
  <path d="M160 10C155 15 153 20 155 25C157 30 162 32 167 30"
        stroke="#90EE90" stroke-width="1.5" fill="none"/>
  <path d="M185 35C180 40 178 45 180 50C182 55 187 57 192 55"
        stroke="#90EE90" stroke-width="1.5" fill="none"/>
  
  <!-- Small Flowers -->
  <circle cx="163" cy="18" r="3" fill="#FFB6C1" fill-opacity="0.6"/>
  <circle cx="188" cy="43" r="2" fill="#FFB6C1" fill-opacity="0.6"/>
  <circle cx="173" cy="63" r="2" fill="#FFB6C1" fill-opacity="0.6"/>
</svg>
