<?xml version="1.0" encoding="UTF-8"?>
<svg width="100" height="100" viewBox="0 0 100 100" fill="none" xmlns="http://www.w3.org/2000/svg">
  <!-- Center -->
  <circle cx="50" cy="50" r="10" fill="#FFB6C1"/>
  
  <!-- Petals -->
  <path d="M50 20C55.5228 20 60 24.4772 60 30C60 35.5228 55.5228 40 50 40C44.4772 40 40 35.5228 40 30C40 24.4772 44.4772 20 50 20Z" fill="#FFB6C1" fill-opacity="0.6"/>
  <path d="M70 50C70 55.5228 65.5228 60 60 60C54.4772 60 50 55.5228 50 50C50 44.4772 54.4772 40 60 40C65.5228 40 70 44.4772 70 50Z" fill="#FFB6C1" fill-opacity="0.6"/>
  <path d="M50 80C44.4772 80 40 75.5228 40 70C40 64.4772 44.4772 60 50 60C55.5228 60 60 64.4772 60 70C60 75.5228 55.5228 80 50 80Z" fill="#FFB6C1" fill-opacity="0.6"/>
  <path d="M30 50C30 44.4772 34.4772 40 40 40C45.5228 40 50 44.4772 50 50C50 55.5228 45.5228 60 40 60C34.4772 60 30 55.5228 30 50Z" fill="#FFB6C1" fill-opacity="0.6"/>
  
  <!-- Diagonal Petals -->
  <path d="M64.1421 35.8579C68.0711 39.7868 68.0711 46.2132 64.1421 50.1421C60.2132 54.0711 53.7868 54.0711 49.8579 50.1421C45.9289 46.2132 45.9289 39.7868 49.8579 35.8579C53.7868 31.9289 60.2132 31.9289 64.1421 35.8579Z" fill="#FFB6C1" fill-opacity="0.4"/>
  <path d="M50.1421 49.8579C54.0711 53.7868 54.0711 60.2132 50.1421 64.1421C46.2132 68.0711 39.7868 68.0711 35.8579 64.1421C31.9289 60.2132 31.9289 53.7868 35.8579 49.8579C39.7868 45.9289 46.2132 45.9289 50.1421 49.8579Z" fill="#FFB6C1" fill-opacity="0.4"/>
  
  <!-- Leaves -->
  <path d="M85 50C85 45 80 40 75 40C80 35 85 30 85 25C85 30 90 35 95 40C90 40 85 45 85 50Z" fill="#90EE90" fill-opacity="0.6"/>
  <path d="M15 50C15 45 20 40 25 40C20 35 15 30 15 25C15 30 10 35 5 40C10 40 15 45 15 50Z" fill="#90EE90" fill-opacity="0.6"/>
</svg>
